<svg width="21" height="21" viewBox="0 0 21 21" fill="none" xmlns="http://www.w3.org/2000/svg">
<path d="M3.75 4.75C3.08696 4.75 2.45107 5.01339 1.98223 5.48223C1.51339 5.95107 1.25 6.58696 1.25 7.25V14.75C1.25 15.413 1.51339 16.0489 1.98223 16.5178C2.45107 16.9866 3.08696 17.25 3.75 17.25H10.625C11.288 17.25 11.9239 16.9866 12.3928 16.5178C12.8616 16.0489 13.125 15.413 13.125 14.75V7.25C13.125 6.58696 12.8616 5.95107 12.3928 5.48223C11.9239 5.01339 11.288 4.75 10.625 4.75H3.75ZM16.6167 16.625L14.375 14.3833V7.61667L16.6167 5.375C17.4033 4.5875 18.75 5.145 18.75 6.25833V15.7417C18.75 16.855 17.4033 17.4125 16.6167 16.625Z" fill="url(#paint0_linear_34_173)"/>
<defs>
<linearGradient id="paint0_linear_34_173" x1="1" y1="11" x2="19" y2="11" gradientUnits="userSpaceOnUse">
<stop stop-color="#5296F6"/>
<stop offset="1" stop-color="#897FD6"/>
</linearGradient>
</defs>
</svg>
