<svg width="21" height="21" viewBox="0 0 21 21" fill="none" xmlns="http://www.w3.org/2000/svg">
<g clip-path="url(#clip0_21_86)">
<path d="M6.75 4.25C6.75 3.25544 7.14509 2.30161 7.84835 1.59835C8.55161 0.895088 9.50544 0.5 10.5 0.5C11.4946 0.5 12.4484 0.895088 13.1517 1.59835C13.8549 2.30161 14.25 3.25544 14.25 4.25V10.5C14.25 11.4946 13.8549 12.4484 13.1517 13.1517C12.4484 13.8549 11.4946 14.25 10.5 14.25C9.50544 14.25 8.55161 13.8549 7.84835 13.1517C7.14509 12.4484 6.75 11.4946 6.75 10.5V4.25Z" fill="url(#paint0_linear_21_86)"/>
<path d="M4.875 8.625C5.04076 8.625 5.19973 8.69085 5.31694 8.80806C5.43415 8.92527 5.5 9.08424 5.5 9.25V10.5C5.5 11.8261 6.02678 13.0979 6.96447 14.0355C7.90215 14.9732 9.17392 15.5 10.5 15.5C11.8261 15.5 13.0979 14.9732 14.0355 14.0355C14.9732 13.0979 15.5 11.8261 15.5 10.5V9.25C15.5 9.08424 15.5658 8.92527 15.6831 8.80806C15.8003 8.69085 15.9592 8.625 16.125 8.625C16.2908 8.625 16.4497 8.69085 16.5669 8.80806C16.6842 8.92527 16.75 9.08424 16.75 9.25V10.5C16.75 12.0494 16.1745 13.5436 15.1352 14.6927C14.0958 15.8418 12.6666 16.5638 11.125 16.7188V19.25H14.875C15.0408 19.25 15.1997 19.3158 15.3169 19.4331C15.4342 19.5503 15.5 19.7092 15.5 19.875C15.5 20.0408 15.4342 20.1997 15.3169 20.3169C15.1997 20.4342 15.0408 20.5 14.875 20.5H6.125C5.95924 20.5 5.80027 20.4342 5.68306 20.3169C5.56585 20.1997 5.5 20.0408 5.5 19.875C5.5 19.7092 5.56585 19.5503 5.68306 19.4331C5.80027 19.3158 5.95924 19.25 6.125 19.25H9.875V16.7188C8.33336 16.5638 6.90422 15.8418 5.86485 14.6927C4.82548 13.5436 4.24998 12.0494 4.25 10.5V9.25C4.25 9.08424 4.31585 8.92527 4.43306 8.80806C4.55027 8.69085 4.70924 8.625 4.875 8.625Z" fill="url(#paint1_linear_21_86)"/>
</g>
<defs>
<linearGradient id="paint0_linear_21_86" x1="5" y1="11" x2="15" y2="11" gradientUnits="userSpaceOnUse">
<stop stop-color="#5297F6"/>
<stop offset="1" stop-color="#897FD6"/>
</linearGradient>
<linearGradient id="paint1_linear_21_86" x1="5" y1="11" x2="15" y2="11" gradientUnits="userSpaceOnUse">
<stop stop-color="#5297F6"/>
<stop offset="1" stop-color="#897FD6"/>
</linearGradient>
<clipPath id="clip0_21_86">
<rect width="20" height="20" fill="white" transform="translate(0.5 0.5)"/>
</clipPath>
</defs>
</svg>
