<svg width="6" height="8" viewBox="0 0 6 8" fill="none" xmlns="http://www.w3.org/2000/svg">
<path fill-rule="evenodd" clip-rule="evenodd" d="M0.375 0.625C0.375 0.525544 0.414509 0.430161 0.484835 0.359835C0.555161 0.289509 0.650544 0.25 0.75 0.25H1.5C1.59946 0.25 1.69484 0.289509 1.76516 0.359835C1.83549 0.430161 1.875 0.525544 1.875 0.625V7.375C1.875 7.47446 1.83549 7.56984 1.76516 7.64017C1.69484 7.71049 1.59946 7.75 1.5 7.75H0.75C0.650544 7.75 0.555161 7.71049 0.484835 7.64017C0.414509 7.56984 0.375 7.47446 0.375 7.375V0.625ZM4.125 0.625C4.125 0.525544 4.16451 0.430161 4.23484 0.359835C4.30516 0.289509 4.40054 0.25 4.5 0.25H5.25C5.34946 0.25 5.44484 0.289509 5.51517 0.359835C5.58549 0.430161 5.625 0.525544 5.625 0.625V7.375C5.625 7.47446 5.58549 7.56984 5.51517 7.64017C5.44484 7.71049 5.34946 7.75 5.25 7.75H4.5C4.40054 7.75 4.30516 7.71049 4.23484 7.64017C4.16451 7.56984 4.125 7.47446 4.125 7.375V0.625Z" fill="url(#paint0_linear_169_5)"/>
<defs>
<linearGradient id="paint0_linear_169_5" x1="3" y1="-2.15074e-08" x2="3" y2="6" gradientUnits="userSpaceOnUse">
<stop stop-color="#5396F6"/>
<stop offset="1" stop-color="#897FD6"/>
</linearGradient>
</defs>
</svg>
