<?xml version="1.0" standalone="no"?>
<!DOCTYPE svg PUBLIC "-//W3C//DTD SVG 20010904//EN"
 "http://www.w3.org/TR/2001/REC-SVG-20010904/DTD/svg10.dtd">
<svg version="1.0" xmlns="http://www.w3.org/2000/svg"
 width="500.000000pt" height="500.000000pt" viewBox="0 0 500.000000 500.000000"
 preserveAspectRatio="xMidYMid meet">

<g transform="translate(0.000000,500.000000) scale(0.100000,-0.100000)"
fill="#000000" stroke="none">
<path d="M2760 2530 l0 -220 30 0 30 0 0 220 0 220 -30 0 -30 0 0 -220z"/>
<path d="M1490 2515 l0 -205 30 0 30 0 0 90 0 90 70 0 c68 0 70 1 70 25 0 23
-3 24 -67 27 l-68 3 0 60 0 60 88 3 c85 3 87 3 87 27 l0 25 -120 0 -120 0 0
-205z"/>
<path d="M1920 2633 c-8 -3 -25 -15 -37 -26 l-23 -20 0 21 c0 18 -6 22 -30 22
l-30 0 0 -160 0 -160 29 0 29 0 4 116 c3 127 11 144 70 144 25 0 28 3 28 35 0
35 -7 40 -40 28z"/>
<path d="M2880 2625 c0 -3 27 -73 61 -156 l60 -152 -27 -66 c-14 -36 -29 -72
-31 -79 -4 -10 3 -13 27 -10 37 3 25 -20 188 371 l41 97 -33 0 c-33 0 -33 -1
-76 -112 -23 -62 -45 -116 -49 -121 -4 -4 -27 47 -51 113 l-43 120 -34 0 c-18
0 -33 -2 -33 -5z"/>
</g>
</svg>
